<?xml version="1.0" encoding="utf-8"?>
<!-- Generator: Adobe Illustrator 23.0.2, SVG Export Plug-In . SVG Version: 6.00 Build 0)  -->
<svg version="1.1"
	 id="Layer_1" inkscape:version="0.91 r13725" sodipodi:docname="Instagram Icon inverted.svg" xmlns:cc="http://creativecommons.org/ns#" xmlns:dc="http://purl.org/dc/elements/1.1/" xmlns:inkscape="http://www.inkscape.org/namespaces/inkscape" xmlns:rdf="http://www.w3.org/1999/02/22-rdf-syntax-ns#" xmlns:sodipodi="http://sodipodi.sourceforge.net/DTD/sodipodi-0.dtd" xmlns:svg="http://www.w3.org/2000/svg"
	 xmlns="http://www.w3.org/2000/svg" xmlns:xlink="http://www.w3.org/1999/xlink" x="0px" y="0px" width="32px" height="31.9px"
	 viewBox="0 0 32 31.9" style="enable-background:new 0 0 32 31.9;" xml:space="preserve">
<style type="text/css">
	.st0{fill:url(#path6205_1_);}
	.st1{fill:url(#path6212_1_);}
	.st2{fill:url(#path6188_1_);}
</style>
<sodipodi:namedview  bordercolor="#666666" borderopacity="1" fit-margin-bottom="0" fit-margin-left="0" fit-margin-right="0" fit-margin-top="0" gridtolerance="10" guidetolerance="10" id="namedview5031" inkscape:current-layer="Layer_1" inkscape:cx="640.43701" inkscape:cy="207.65183" inkscape:pageopacity="0" inkscape:pageshadow="2" inkscape:window-height="705" inkscape:window-maximized="1" inkscape:window-width="1366" inkscape:window-x="-8" inkscape:window-y="-8" inkscape:zoom="0.3337544" objecttolerance="10" pagecolor="#ffffff" showgrid="false">
	</sodipodi:namedview>
<g>
	
		<radialGradient id="path6205_1_" cx="914.7986" cy="65.7509" r="27.8671" gradientTransform="matrix(2.3934 -0.4018 -0.2444 -1.4527 -2168.313 497.3984)" gradientUnits="userSpaceOnUse">
		<stop  offset="0" style="stop-color:#FED576"/>
		<stop  offset="0.2634" style="stop-color:#F47133"/>
		<stop  offset="0.6091" style="stop-color:#BC3081"/>
		<stop  offset="1" style="stop-color:#4C63D2"/>
	</radialGradient>
	<path id="path6205" inkscape:connector-curvature="0" class="st0" d="M16,7.8c-0.3,0-0.6,0-0.8,0c-0.3,0-0.5,0.1-0.8,0.1
		c-0.3,0.1-0.5,0.1-0.8,0.2c-0.3,0.1-0.5,0.2-0.8,0.3c-0.2,0.1-0.5,0.2-0.7,0.3c-0.2,0.1-0.5,0.3-0.7,0.4c-0.2,0.1-0.4,0.3-0.6,0.5
		c-0.2,0.2-0.4,0.3-0.6,0.5c-0.2,0.2-0.4,0.4-0.5,0.6c-0.2,0.2-0.3,0.4-0.5,0.6c-0.1,0.2-0.3,0.4-0.4,0.7c-0.1,0.2-0.2,0.5-0.3,0.7
		s-0.2,0.5-0.3,0.8c-0.1,0.3-0.1,0.5-0.2,0.8c-0.1,0.3-0.1,0.5-0.1,0.8c0,0.3,0,0.6,0,0.8c0,0.3,0,0.6,0,0.8c0,0.3,0.1,0.5,0.1,0.8
		c0.1,0.3,0.1,0.5,0.2,0.8c0.1,0.3,0.2,0.5,0.3,0.8c0.1,0.2,0.2,0.5,0.3,0.7c0.1,0.2,0.3,0.5,0.4,0.7c0.1,0.2,0.3,0.4,0.5,0.6
		c0.2,0.2,0.3,0.4,0.5,0.6c0.2,0.2,0.4,0.4,0.6,0.5c0.2,0.2,0.4,0.3,0.6,0.5c0.2,0.1,0.4,0.3,0.7,0.4c0.2,0.1,0.5,0.2,0.7,0.3
		c0.2,0.1,0.5,0.2,0.8,0.3s0.5,0.1,0.8,0.2c0.3,0.1,0.5,0.1,0.8,0.1c0.3,0,0.6,0,0.8,0c0.3,0,0.6,0,0.8,0s0.5-0.1,0.8-0.1
		c0.3-0.1,0.5-0.1,0.8-0.2c0.3-0.1,0.5-0.2,0.8-0.3s0.5-0.2,0.7-0.3c0.2-0.1,0.5-0.3,0.7-0.4c0.2-0.1,0.4-0.3,0.6-0.5
		c0.2-0.2,0.4-0.3,0.6-0.5s0.4-0.4,0.5-0.6c0.2-0.2,0.3-0.4,0.5-0.6s0.3-0.4,0.4-0.7c0.1-0.2,0.2-0.5,0.3-0.7
		c0.1-0.2,0.2-0.5,0.3-0.8c0.1-0.3,0.1-0.5,0.2-0.8c0.1-0.3,0.1-0.5,0.1-0.8c0-0.3,0-0.6,0-0.8c0-0.3,0-0.6,0-0.8
		c0-0.3-0.1-0.5-0.1-0.8s-0.1-0.5-0.2-0.8c-0.1-0.3-0.2-0.5-0.3-0.8c-0.1-0.2-0.2-0.5-0.3-0.7c-0.1-0.2-0.3-0.5-0.4-0.7
		c-0.1-0.2-0.3-0.4-0.5-0.6c-0.2-0.2-0.3-0.4-0.5-0.6s-0.4-0.4-0.6-0.5c-0.2-0.2-0.4-0.3-0.6-0.5c-0.2-0.1-0.4-0.3-0.7-0.4
		c-0.2-0.1-0.5-0.2-0.7-0.3c-0.2-0.1-0.5-0.2-0.8-0.3C18.2,8.1,17.9,8,17.7,8c-0.3-0.1-0.5-0.1-0.8-0.1C16.6,7.8,16.3,7.8,16,7.8
		L16,7.8z M16,10.6c0.2,0,0.4,0,0.6,0c0.2,0,0.4,0,0.5,0.1c0.2,0,0.3,0.1,0.5,0.1s0.3,0.1,0.5,0.2c0.2,0.1,0.3,0.1,0.5,0.2
		c0.2,0.1,0.3,0.2,0.4,0.3s0.3,0.2,0.4,0.3c0.1,0.1,0.3,0.2,0.4,0.3s0.2,0.2,0.3,0.4s0.2,0.3,0.3,0.4c0.1,0.1,0.2,0.3,0.3,0.4
		c0.1,0.2,0.2,0.3,0.2,0.5s0.1,0.3,0.2,0.5c0.1,0.2,0.1,0.3,0.1,0.5c0,0.2,0.1,0.4,0.1,0.5s0,0.4,0,0.6c0,0.2,0,0.4,0,0.6
		s0,0.4-0.1,0.5c0,0.2-0.1,0.3-0.1,0.5c-0.1,0.2-0.1,0.3-0.2,0.5c-0.1,0.2-0.1,0.3-0.2,0.5c-0.1,0.2-0.2,0.3-0.3,0.4
		c-0.1,0.1-0.2,0.3-0.3,0.4c-0.1,0.1-0.2,0.3-0.3,0.4c-0.1,0.1-0.2,0.2-0.4,0.3c-0.1,0.1-0.3,0.2-0.4,0.3s-0.3,0.2-0.4,0.3
		c-0.2,0.1-0.3,0.2-0.5,0.2c-0.2,0.1-0.3,0.1-0.5,0.2c-0.2,0.1-0.3,0.1-0.5,0.1c-0.2,0-0.4,0.1-0.5,0.1c-0.2,0-0.4,0-0.6,0
		c-0.2,0-0.4,0-0.6,0c-0.2,0-0.4,0-0.5-0.1c-0.2,0-0.3-0.1-0.5-0.1c-0.2-0.1-0.3-0.1-0.5-0.2c-0.2-0.1-0.3-0.1-0.5-0.2
		c-0.2-0.1-0.3-0.2-0.4-0.3c-0.1-0.1-0.3-0.2-0.4-0.3s-0.3-0.2-0.4-0.3c-0.1-0.1-0.2-0.2-0.3-0.4c-0.1-0.1-0.2-0.3-0.3-0.4
		c-0.1-0.1-0.2-0.3-0.3-0.4c-0.1-0.2-0.2-0.3-0.2-0.5c-0.1-0.2-0.1-0.3-0.2-0.5c-0.1-0.2-0.1-0.3-0.1-0.5s-0.1-0.4-0.1-0.5
		s0-0.4,0-0.6c0-0.2,0-0.4,0-0.6s0-0.4,0.1-0.5c0-0.2,0.1-0.3,0.1-0.5c0.1-0.2,0.1-0.3,0.2-0.5s0.1-0.3,0.2-0.5
		c0.1-0.2,0.2-0.3,0.3-0.4c0.1-0.1,0.2-0.3,0.3-0.4c0.1-0.1,0.2-0.3,0.3-0.4s0.2-0.2,0.4-0.3c0.1-0.1,0.3-0.2,0.4-0.3
		s0.3-0.2,0.4-0.3c0.2-0.1,0.3-0.2,0.5-0.2c0.2-0.1,0.3-0.1,0.5-0.2s0.3-0.1,0.5-0.1c0.2,0,0.4-0.1,0.5-0.1
		C15.6,10.6,15.8,10.6,16,10.6z"/>
	
		<radialGradient id="path6212_1_" cx="914.7986" cy="65.7509" r="27.8671" gradientTransform="matrix(2.3934 -0.4018 -0.2444 -1.4527 -2168.313 497.3984)" gradientUnits="userSpaceOnUse">
		<stop  offset="0" style="stop-color:#FED576"/>
		<stop  offset="0.2634" style="stop-color:#F47133"/>
		<stop  offset="0.6091" style="stop-color:#BC3081"/>
		<stop  offset="1" style="stop-color:#4C63D2"/>
	</radialGradient>
	<path id="path6212" inkscape:connector-curvature="0" class="st1" d="M24.5,5.5c-0.1,0-0.1,0-0.2,0c-0.1,0-0.1,0-0.2,0
		c-0.1,0-0.1,0-0.2,0c-0.1,0-0.1,0-0.2,0.1c-0.1,0-0.1,0.1-0.2,0.1c-0.1,0-0.1,0.1-0.2,0.1c-0.1,0-0.1,0.1-0.2,0.1
		c0,0-0.1,0.1-0.1,0.1c0,0-0.1,0.1-0.1,0.1c0,0.1-0.1,0.1-0.1,0.2c0,0.1-0.1,0.1-0.1,0.2c0,0.1-0.1,0.1-0.1,0.2c0,0.1,0,0.1-0.1,0.2
		c0,0.1,0,0.1,0,0.2c0,0.1,0,0.1,0,0.2c0,0,0,0.1,0,0.1c0,0.1,0,0.1,0,0.2c0,0.1,0,0.1,0,0.2c0,0.1,0,0.1,0,0.2c0,0.1,0,0.1,0.1,0.2
		c0,0.1,0.1,0.1,0.1,0.2c0,0.1,0.1,0.1,0.1,0.2C23,8.6,23,8.7,23,8.7c0,0.1,0.1,0.1,0.1,0.1c0,0,0.1,0.1,0.1,0.1
		c0.1,0,0.1,0.1,0.2,0.1c0.1,0,0.1,0.1,0.2,0.1c0.1,0,0.1,0.1,0.2,0.1c0.1,0,0.1,0,0.2,0.1c0.1,0,0.1,0,0.2,0c0.1,0,0.1,0,0.2,0
		c0,0,0.1,0,0.1,0c0.1,0,0.1,0,0.2,0c0.1,0,0.1,0,0.2,0c0.1,0,0.1,0,0.2,0c0.1,0,0.1,0,0.2-0.1c0.1,0,0.1-0.1,0.2-0.1
		c0.1,0,0.1-0.1,0.2-0.1C25.7,9,25.7,9,25.8,9c0,0,0.1-0.1,0.1-0.1c0,0,0.1-0.1,0.1-0.1c0-0.1,0.1-0.1,0.1-0.2
		c0-0.1,0.1-0.1,0.1-0.2c0-0.1,0.1-0.1,0.1-0.2c0-0.1,0-0.1,0.1-0.2c0-0.1,0-0.1,0-0.2c0-0.1,0-0.1,0-0.2c0,0,0-0.1,0-0.1
		c0-0.1,0-0.1,0-0.2c0-0.1,0-0.1,0-0.2c0-0.1,0-0.1,0-0.2c0-0.1,0-0.1-0.1-0.2c0-0.1-0.1-0.1-0.1-0.2c0-0.1-0.1-0.1-0.1-0.2
		c0-0.1-0.1-0.1-0.1-0.2c0-0.1-0.1-0.1-0.1-0.1c0,0-0.1-0.1-0.1-0.1c-0.1,0-0.1-0.1-0.2-0.1c-0.1,0-0.1-0.1-0.2-0.1
		c-0.1,0-0.1-0.1-0.2-0.1c-0.1,0-0.1,0-0.2-0.1c-0.1,0-0.1,0-0.2,0c-0.1,0-0.1,0-0.2,0C24.6,5.5,24.6,5.5,24.5,5.5L24.5,5.5z"/>
	
		<radialGradient id="path6188_1_" cx="914.7986" cy="65.7509" r="27.8671" gradientTransform="matrix(2.3934 -0.4018 -0.2444 -1.4527 -2168.313 497.3984)" gradientUnits="userSpaceOnUse">
		<stop  offset="0" style="stop-color:#FED576"/>
		<stop  offset="0.2634" style="stop-color:#F47133"/>
		<stop  offset="0.6091" style="stop-color:#BC3081"/>
		<stop  offset="1" style="stop-color:#4C63D2"/>
	</radialGradient>
	<path id="path6188" inkscape:connector-curvature="0" class="st2" d="M14.5,0c-0.9,0-1.7,0-2.4,0c-0.7,0-1.3,0-1.9,0.1
		S9.1,0.1,8.6,0.2c-0.2,0-0.4,0-0.6,0.1c-0.2,0-0.4,0.1-0.6,0.1c-0.2,0-0.4,0.1-0.5,0.1c-0.2,0-0.3,0.1-0.5,0.1
		C6.3,0.6,6.1,0.6,6,0.7c-0.1,0-0.3,0.1-0.4,0.2C5.3,0.9,5,1.1,4.8,1.2C4.5,1.3,4.3,1.4,4.2,1.5C4,1.6,3.8,1.7,3.6,1.9
		C3.4,2,3.3,2.2,3.1,2.3C2.9,2.5,2.8,2.6,2.6,2.8C2.3,3.1,2.1,3.3,2,3.5C1.9,3.6,1.8,3.7,1.7,3.8C1.6,4,1.6,4.1,1.5,4.2
		C1.4,4.3,1.4,4.4,1.3,4.5C1.2,4.6,1.2,4.8,1.1,4.9C1,5.1,0.9,5.4,0.8,5.7C0.7,5.9,0.6,6.1,0.6,6.4C0.5,6.6,0.4,6.9,0.4,7.1
		C0.3,7.4,0.3,7.7,0.3,8c0,0.3-0.1,0.7-0.1,1c0,0.4-0.1,0.8-0.1,1.3c0,0.5,0,1,0,1.5c0,0.6,0,1.2,0,1.9c0,0.7,0,1.4,0,2.3
		c0,1.2,0,2.3,0,3.3c0,1,0,1.8,0.1,2.5c0,0.4,0,0.7,0.1,1s0,0.6,0.1,0.8c0,0.2,0,0.5,0.1,0.7c0,0.2,0.1,0.4,0.1,0.5
		c0.1,0.3,0.1,0.6,0.2,0.9c0.1,0.3,0.2,0.6,0.3,0.8C1,26.8,1.1,27,1.2,27.3c0.1,0.2,0.3,0.5,0.4,0.7c0.1,0.2,0.3,0.4,0.5,0.7
		c0.2,0.2,0.3,0.4,0.5,0.6s0.4,0.4,0.6,0.5c0.2,0.2,0.4,0.3,0.7,0.5c0.2,0.1,0.4,0.3,0.6,0.4C4.8,30.8,5,30.9,5.2,31
		c0.2,0.1,0.4,0.2,0.7,0.3c0.2,0.1,0.5,0.2,0.7,0.2c0.3,0.1,0.5,0.1,0.8,0.2c0.3,0,0.6,0.1,0.9,0.1s0.7,0.1,1.1,0.1
		c0.4,0,0.8,0,1.2,0.1c0.7,0,1.7,0,2.9,0c1.2,0,2.5,0,3.8,0c1.3,0,2.6,0,3.6-0.1c0.5,0,1,0,1.4,0c0.4,0,0.7,0,0.9,0
		c0.2,0,0.4,0,0.6-0.1c0.2,0,0.4,0,0.5-0.1s0.3-0.1,0.5-0.1c0.2,0,0.3-0.1,0.5-0.1c0.2,0,0.3-0.1,0.5-0.1c0.2,0,0.3-0.1,0.5-0.2
		s0.3-0.1,0.5-0.2c0.2-0.1,0.3-0.1,0.5-0.2c0.2-0.1,0.4-0.2,0.6-0.3c0.2-0.1,0.3-0.2,0.5-0.3c0.1-0.1,0.3-0.2,0.4-0.4
		c0.2-0.2,0.3-0.3,0.6-0.6c0.2-0.2,0.4-0.4,0.5-0.5s0.3-0.3,0.4-0.4c0.1-0.1,0.2-0.3,0.3-0.4c0.1-0.1,0.2-0.3,0.2-0.4
		c0.1-0.2,0.2-0.5,0.3-0.7c0.1-0.2,0.2-0.4,0.3-0.6c0.1-0.2,0.1-0.4,0.2-0.6c0.1-0.2,0.1-0.5,0.2-0.7c0-0.3,0.1-0.5,0.1-0.9
		c0-0.3,0.1-0.7,0.1-1.1s0-0.8,0.1-1.3c0-0.5,0-1,0.1-1.6c0-0.6,0-1.2,0-1.8s0-1.3,0-1.9c0-1.3,0-2.6,0-3.7c0-0.6,0-1.2,0-1.7
		s0-1-0.1-1.4c0-0.4,0-0.8-0.1-1.1c0-0.3-0.1-0.6-0.1-0.7c0-0.2-0.1-0.4-0.1-0.5c0-0.2-0.1-0.4-0.1-0.5c-0.1-0.2-0.1-0.3-0.2-0.5
		c-0.1-0.2-0.1-0.3-0.2-0.5C31,5.2,30.9,5,30.9,4.9c-0.1-0.2-0.1-0.3-0.2-0.4c-0.1-0.1-0.2-0.3-0.3-0.4s-0.2-0.3-0.3-0.4
		c-0.1-0.1-0.2-0.3-0.3-0.4c-0.1-0.1-0.2-0.2-0.3-0.4c-0.1-0.1-0.2-0.2-0.3-0.3c-0.1-0.1-0.2-0.2-0.4-0.3c-0.1-0.1-0.3-0.2-0.4-0.3
		S28.2,1.7,28,1.6c-0.1-0.1-0.3-0.2-0.4-0.3c-0.1-0.1-0.3-0.2-0.4-0.2c-0.3-0.1-0.5-0.2-0.7-0.3c-0.2-0.1-0.4-0.2-0.7-0.3
		c-0.2-0.1-0.5-0.1-0.7-0.2s-0.6-0.1-0.9-0.1c-0.3,0-0.7-0.1-1.1-0.1c-0.4,0-0.9,0-1.4-0.1c-0.5,0-1.1,0-1.8,0c-0.7,0-1.5,0-2.3,0
		C16.3,0,15.4,0,14.5,0z M16,2.8c1.5,0,3,0,4.3,0c0.6,0,1.2,0,1.6,0c0.4,0,0.8,0,1,0c0.3,0,0.5,0,0.7,0.1c0.2,0,0.5,0.1,0.7,0.1
		c0.2,0,0.4,0.1,0.6,0.2c0.2,0.1,0.4,0.1,0.6,0.2c0.2,0.1,0.4,0.2,0.5,0.2c0.2,0.1,0.3,0.2,0.5,0.3s0.3,0.2,0.4,0.3
		c0.1,0.1,0.3,0.2,0.4,0.4c0.1,0.1,0.3,0.3,0.4,0.4c0.1,0.2,0.2,0.3,0.3,0.5c0.1,0.2,0.2,0.3,0.3,0.5c0.1,0.2,0.2,0.4,0.2,0.6
		c0.1,0.2,0.1,0.4,0.2,0.6c0.1,0.2,0.1,0.5,0.1,0.7C29,8.3,29,8.6,29,8.9s0.1,0.6,0.1,1c0,0.3,0,0.6,0,1.1c0,0.4,0,0.9,0,1.5
		c0,1.1,0,2.3,0,3.6s0,2.5,0,3.6c0,0.5,0,1,0,1.5s0,0.8,0,1.1c0,0.5-0.1,0.9-0.1,1.3c0,0.2,0,0.3-0.1,0.5c0,0.2,0,0.3-0.1,0.4
		c0,0.1-0.1,0.3-0.1,0.4c0,0.1-0.1,0.3-0.1,0.4c0,0.1-0.1,0.2-0.1,0.4c-0.1,0.1-0.1,0.2-0.2,0.4c-0.1,0.1-0.1,0.2-0.2,0.3
		s-0.1,0.2-0.2,0.3c-0.1,0.1-0.1,0.2-0.2,0.3s-0.1,0.2-0.2,0.3c-0.1,0.1-0.2,0.2-0.2,0.3c-0.1,0.1-0.2,0.2-0.3,0.2
		c-0.1,0.1-0.2,0.2-0.3,0.2c-0.1,0.1-0.2,0.1-0.3,0.2c-0.1,0.1-0.2,0.1-0.3,0.2s-0.2,0.1-0.3,0.2c-0.1,0.1-0.2,0.1-0.4,0.2
		c-0.1,0-0.2,0.1-0.4,0.1c-0.3,0.1-0.5,0.2-0.8,0.2c-0.3,0.1-0.6,0.1-0.9,0.2c-0.1,0-0.4,0-0.8,0c-0.4,0-0.9,0-1.5,0
		c-1.2,0-2.6,0-4.1,0.1c-1.5,0-3,0-4.3,0c-0.6,0-1.2,0-1.7,0c-0.5,0-0.9,0-1.1,0c-0.3,0-0.6,0-0.8-0.1c-0.3,0-0.5,0-0.7-0.1
		c-0.2,0-0.4-0.1-0.6-0.1c-0.2,0-0.4-0.1-0.5-0.1S7,28.7,6.8,28.6c-0.2-0.1-0.3-0.1-0.4-0.2S6.1,28.3,6,28.2
		c-0.1-0.1-0.3-0.2-0.4-0.2c-0.1-0.1-0.2-0.1-0.3-0.2c-0.1-0.1-0.2-0.1-0.3-0.2c-0.1-0.1-0.2-0.2-0.3-0.2c-0.1-0.1-0.2-0.2-0.2-0.2
		c-0.1-0.1-0.2-0.2-0.2-0.3c-0.1-0.1-0.1-0.2-0.2-0.3s-0.1-0.2-0.2-0.3c-0.1-0.1-0.1-0.2-0.2-0.3c-0.1-0.1-0.1-0.2-0.2-0.3
		c0-0.1-0.1-0.2-0.1-0.4c-0.1-0.2-0.2-0.5-0.2-0.8c-0.1-0.3-0.1-0.6-0.2-0.9c0-0.3-0.1-0.7-0.1-1c0-0.3,0-0.7-0.1-1.2
		c0-0.5,0-1.1,0-1.8c0-1.4,0-3.1,0-4.7c0-1.6,0-3.2,0.1-4.5C3,9.7,3,9.2,3,8.8c0-0.2,0-0.4,0-0.5c0-0.1,0-0.2,0-0.3
		c0-0.2,0.1-0.4,0.1-0.6c0-0.2,0.1-0.3,0.1-0.5c0-0.2,0.1-0.3,0.2-0.4c0.1-0.1,0.1-0.3,0.2-0.4c0.1-0.1,0.1-0.2,0.2-0.4
		C3.9,5.6,4,5.5,4.1,5.4C4.2,5.2,4.3,5.1,4.4,5c0.1-0.1,0.2-0.2,0.3-0.3C4.8,4.5,5,4.4,5.1,4.3C5.3,4.2,5.4,4.1,5.6,4
		C5.7,3.9,5.9,3.8,6,3.7c0.2-0.1,0.3-0.2,0.5-0.2s0.4-0.1,0.5-0.2c0.2-0.1,0.4-0.1,0.6-0.1S8.1,3,8.4,3c0.2,0,0.5-0.1,0.8-0.1
		c0.2,0,0.5,0,1,0c0.4,0,1,0,1.6,0C13,2.8,14.5,2.8,16,2.8z"/>
</g>
</svg>
