<?xml version="1.0" encoding="utf-8"?>
<!-- Generator: Adobe Illustrator 24.3.0, SVG Export Plug-In . SVG Version: 6.00 Build 0)  -->
<svg version="1.1" id="Layer_1" xmlns="http://www.w3.org/2000/svg" xmlns:xlink="http://www.w3.org/1999/xlink" x="0px" y="0px"
	 width="150px" height="150px" viewBox="0 0 150 150" style="enable-background:new 0 0 150 150;" xml:space="preserve">
<style type="text/css">
	.st0{fill:#1877F2;}
	.st1{fill:#FFFFFF;}
</style>
<g>
	<path class="st0" d="M150,75c0-41.4-33.6-75-75-75S0,33.6,0,75c0,37.4,27.4,68.5,63.3,74.1V96.7h-19V75h19V58.5
		c0-18.8,11.2-29.2,28.3-29.2c8.2,0,16.8,1.5,16.8,1.5v18.5h-9.5c-9.3,0-12.2,5.8-12.2,11.7V75h20.8l-3.3,21.7H86.7v52.4
		C122.6,143.5,150,112.4,150,75z"/>
	<path class="st1" d="M104.2,96.7l3.3-21.7H86.7V60.9c0-5.9,2.9-11.7,12.2-11.7h9.5V30.8c0,0-8.6-1.5-16.8-1.5
		c-17.1,0-28.3,10.4-28.3,29.2V75h-19v21.7h19v52.4c3.8,0.6,7.7,0.9,11.7,0.9s7.9-0.3,11.7-0.9V96.7H104.2z"/>
</g>
</svg>
