<?xml version="1.0" encoding="utf-8"?>
<!-- Generator: Adobe Illustrator 19.0.0, SVG Export Plug-In . SVG Version: 6.00 Build 0)  -->
<svg version="1.1" id="Layer_1" xmlns="http://www.w3.org/2000/svg" xmlns:xlink="http://www.w3.org/1999/xlink" x="0px" y="0px"
	 viewBox="-289 381 32 32" style="enable-background:new -289 381 32 32;" xml:space="preserve">
<style type="text/css">
	.st0{fill:#DD4B39;}
	.st1{fill:#FFFFFF;}
</style>
<g>
	<path class="st0" d="M-258.8,381h-28.4c-1,0-1.8,0.8-1.8,1.8v28.4c0,1,0.8,1.8,1.8,1.8h28.4v-0.1c1,0,1.8-0.8,1.8-1.8v-28.3
		C-257,381.8-257.8,381-258.8,381z"/>
	<path class="st0" d="M-276.2,396.2c0,0.6,0,1.3,0,1.9c1.1,0,2.1,0,3.2,0c-0.3,0.9-0.9,1.8-1.8,2.1c-1.8,0.8-4.1-0.2-4.6-2.1
		c-0.7-1.8,0.4-4,2.3-4.5c1.1-0.4,2.3,0.1,3.3,0.6c0.5-0.5,1-1,1.4-1.5c-1.1-0.9-2.5-1.5-4-1.4c-2.9,0-5.4,2.7-5.3,5.6
		c0,2.3,1.6,4.5,3.8,5.3c2.1,0.7,4.6,0.2,6-1.6c1-1.2,1.2-2.9,1.1-4.5C-272.6,396.2-274.4,396.2-276.2,396.2z"/>
	<path class="st0" d="M-265.8,394.6c-0.5,0-1.1,0-1.6,0c0,0.5,0,1.1,0,1.6c-0.5,0-1.1,0-1.6,0c0,0.5,0,1.1,0,1.6c0.5,0,1.1,0,1.6,0
		c0,0.5,0,1.1,0,1.6c0.5,0,1.1,0,1.6,0c0-0.5,0-1.1,0-1.6c0.5,0,1.1,0,1.6,0c0-0.5,0-1.1,0-1.6c-0.5,0-1.1,0-1.6,0
		C-265.8,395.7-265.8,395.1-265.8,394.6z"/>
	<path class="st1" d="M-281.8,397c-0.1-2.9,2.4-5.5,5.3-5.6c1.5-0.1,2.9,0.4,4,1.4c-0.5,0.5-0.9,1-1.4,1.5c-1-0.6-2.2-1-3.3-0.6
		c-1.8,0.5-3,2.7-2.3,4.5c0.6,1.9,2.9,2.9,4.6,2.1c0.9-0.3,1.5-1.2,1.8-2.1c-1.1,0-2.1,0-3.2,0c0-0.6,0-1.3,0-1.9c1.8,0,3.6,0,5.3,0
		c0.1,1.6-0.1,3.2-1.1,4.5c-1.4,1.8-3.9,2.3-6,1.6C-280.2,401.5-281.8,399.3-281.8,397z"/>
	<path class="st1" d="M-267.4,394.6c0.5,0,1.1,0,1.6,0c0,0.5,0,1.1,0,1.6c0.5,0,1.1,0,1.6,0c0,0.5,0,1.1,0,1.6c-0.5,0-1.1,0-1.6,0
		c0,0.5,0,1.1,0,1.6c-0.5,0-1.1,0-1.6,0c0-0.5,0-1.1,0-1.6c-0.5,0-1.1,0-1.6,0c0-0.5,0-1.1,0-1.6c0.5,0,1.1,0,1.6,0
		C-267.4,395.7-267.4,395.1-267.4,394.6z"/>
</g>
</svg>
